<svg id="visual" viewBox="0 0 900 600" width="900" height="600" xmlns="http://www.w3.org/2000/svg" xmlns:xlink="http://www.w3.org/1999/xlink" version="1.1"><rect x="0" y="0" width="900" height="600" fill="#2e3c71"></rect><path d="M0 393L21.5 389.7C43 386.3 86 379.7 128.8 382.8C171.7 386 214.3 399 257.2 403.3C300 407.7 343 403.3 385.8 399.3C428.7 395.3 471.3 391.7 514.2 399.7C557 407.7 600 427.3 642.8 422.7C685.7 418 728.3 389 771.2 383.3C814 377.7 857 395.3 878.5 404.2L900 413L900 601L878.5 601C857 601 814 601 771.2 601C728.3 601 685.7 601 642.8 601C600 601 557 601 514.2 601C471.3 601 428.7 601 385.8 601C343 601 300 601 257.2 601C214.3 601 171.7 601 128.8 601C86 601 43 601 21.5 601L0 601Z" fill="#5261a7"></path><path d="M0 398L21.5 397.7C43 397.3 86 396.7 128.8 407.8C171.7 419 214.3 442 257.2 444.2C300 446.3 343 427.7 385.8 419.3C428.7 411 471.3 413 514.2 421C557 429 600 443 642.8 444.5C685.7 446 728.3 435 771.2 434C814 433 857 442 878.5 446.5L900 451L900 601L878.5 601C857 601 814 601 771.2 601C728.3 601 685.7 601 642.8 601C600 601 557 601 514.2 601C471.3 601 428.7 601 385.8 601C343 601 300 601 257.2 601C214.3 601 171.7 601 128.8 601C86 601 43 601 21.5 601L0 601Z" fill="#596abb"></path><path d="M0 506L21.5 500.8C43 495.7 86 485.3 128.8 477.5C171.7 469.7 214.3 464.3 257.2 461.7C300 459 343 459 385.8 464.3C428.7 469.7 471.3 480.3 514.2 482.5C557 484.7 600 478.3 642.8 478.3C685.7 478.3 728.3 484.7 771.2 487.8C814 491 857 491 878.5 491L900 491L900 601L878.5 601C857 601 814 601 771.2 601C728.3 601 685.7 601 642.8 601C600 601 557 601 514.2 601C471.3 601 428.7 601 385.8 601C343 601 300 601 257.2 601C214.3 601 171.7 601 128.8 601C86 601 43 601 21.5 601L0 601Z" fill="#6074d0"></path><path d="M0 511L21.5 513C43 515 86 519 128.8 515.3C171.7 511.7 214.3 500.3 257.2 498C300 495.7 343 502.3 385.8 510.5C428.7 518.7 471.3 528.3 514.2 526.7C557 525 600 512 642.8 510.7C685.7 509.3 728.3 519.7 771.2 526C814 532.3 857 534.7 878.5 535.8L900 537L900 601L878.5 601C857 601 814 601 771.2 601C728.3 601 685.7 601 642.8 601C600 601 557 601 514.2 601C471.3 601 428.7 601 385.8 601C343 601 300 601 257.2 601C214.3 601 171.7 601 128.8 601C86 601 43 601 21.5 601L0 601Z" fill="#687de5"></path><path d="M0 525L21.5 531C43 537 86 549 128.8 553.3C171.7 557.7 214.3 554.3 257.2 554C300 553.7 343 556.3 385.8 556.3C428.7 556.3 471.3 553.7 514.2 554.3C557 555 600 559 642.8 555.5C685.7 552 728.3 541 771.2 540.5C814 540 857 550 878.5 555L900 560L900 601L878.5 601C857 601 814 601 771.2 601C728.3 601 685.7 601 642.8 601C600 601 557 601 514.2 601C471.3 601 428.7 601 385.8 601C343 601 300 601 257.2 601C214.3 601 171.7 601 128.8 601C86 601 43 601 21.5 601L0 601Z" fill="#7087fa"></path></svg>